PathFileType	4	(X/Y/Z)	Patient4_TMGait_0pt6_02_right_38.trc.trc
DataRate	CameraRate	NumFrames	NumMarkers	Units	OrigDataRate	OrigDataStartFrame	OrigNumFrames
79.096045197740	79.096045197740	4	33	mm	79.096045197740	71	       141
Frame#	Time	Sacral			L.Shoulder			Chest			R.Shoulder			Neck			R.ASIS			L.ASIS			R.Thigh.Superior			R.Thigh.Lateral			R.Thigh.Inferior			R.Patella			L.Thigh.Superior			L.Thigh.Lateral			L.Thigh.Inferior			L.Patella			L.Shank.Superior			L.Shank.Lateral			L.Shank.Inferior			R.Shank.Superior			R.Shank.Lateral			R.Shank.Inferior			R.Heel			R.Midfoot.Superior			R.Midfoot.Lateral			R.Toe			L.Heel			L.Midfoot.Lateral			L.Midfoot.Superior			L.Toe			L.Elbow			L.Wrist			R.Elbow			R.Wrist			
		X1	Y1	Z1	X2	Y2	Z2	X3	Y3	Z3	X4	Y4	Z4	X5	Y5	Z5	X6	Y6	Z6	X7	Y7	Z7	X8	Y8	Z8	X9	Y9	Z9	X10	Y10	Z10	X11	Y11	Z11	X12	Y12	Z12	X13	Y13	Z13	X14	Y14	Z14	X15	Y15	Z15	X16	Y16	Z16	X17	Y17	Z17	X18	Y18	Z18	X19	Y19	Z19	X20	Y20	Z20	X21	Y21	Z21	X22	Y22	Z22	X23	Y23	Z23	X24	Y24	Z24	X25	Y25	Z25	X26	Y26	Z26	X27	Y27	Z27	X28	Y28	Z28	X29	Y29	Z29	X30	Y30	Z30	X31	Y31	Z31	X32	Y32	Z32	X33	Y33	Z33	

71	46.645000000000	814.139892681251	1008.558581561000	525.953050911705	1009.601878572455	1442.895136217818	378.817880389959	1112.493679882765	1349.672516147554	526.720487688649	1040.822776908679	1414.501866402426	709.217091284082	1025.364470190325	1487.796882329539	533.377547415065	1035.665919925912	936.557847653471	645.081494470931	1026.645927483401	957.260939945841	370.300912889019	1036.719213346570	726.607091543732	619.775331817371	928.469002289418	633.151451641374	673.292058640610	996.254893856941	567.173888633512	600.298176452535	977.063603105927	482.181068184116	604.744489012337	1094.088226731334	769.859844109913	398.482834480604	1042.026411644158	640.434839678663	321.574642085935	1144.468222700041	581.999646432006	383.727252468010	1168.367808280181	515.764162495046	382.465123460547	1152.296929185403	442.841597346972	373.267649336310	1084.706140913116	313.226740465045	324.721692515956	1169.634299249928	214.340281072414	382.072517707106	938.562290889607	398.661534042848	607.537960516085	848.312578768560	304.243386878877	659.337664808099	887.819034640723	205.255375190431	599.835227236174	745.667507591461	43.231086714159	555.734651004129	915.988760867597	97.555814173579	599.344792832390	825.724685162158	36.307558836076	633.479628358225	1034.096915506643	45.208916218826	630.535605810601	1080.045574202043	41.234206149009	419.657851139568	1156.350895740566	42.667834357627	341.953004216422	1230.655614089528	114.138462218023	365.940405113270	1363.205491028722	76.236072774951	343.824298188861	857.927819125193	1136.853127105650	241.939044220278	964.530094444964	899.273860128056	202.628766068858	1065.579108226294	1066.202117359829	812.782675935430	1277.011467608774	997.613981729429	689.920803385602	
72	46.657642857143	815.016975120596	1007.452746282729	523.555066303877	1009.836469238216	1441.788486183663	376.253160037953	1112.515499016176	1349.152200034893	524.718639150495	1039.734332399100	1413.940722904754	706.791265949065	1024.873911496201	1487.016968077429	530.766054948886	1036.296435041832	935.714742600538	643.480148544414	1028.106086936154	955.871512976770	368.783923915238	1036.656580834238	725.373926702671	619.030626427314	927.276880154095	632.607469985572	672.117622017875	994.896265099224	565.880741634135	599.639877027640	974.827539813602	480.675699845879	603.808838939427	1094.912865764828	767.135303328949	398.293644363078	1041.216516119024	637.913993542026	322.747644730209	1143.070002170301	579.159861508385	385.662232556059	1165.398908221539	511.914076261770	385.316492959022	1148.659289732493	438.765898816704	375.837775146203	1079.053794828050	310.187714802307	327.292038049717	1161.475527006990	209.923831810070	385.774142884200	935.195443826611	397.693958858275	606.849627893121	843.740273654771	304.553762165476	658.833104149682	881.899425660506	204.945605492523	599.512924340492	738.156537514377	43.813170330318	555.832468618317	908.433735483489	97.233499677310	598.942976023415	818.183267089561	36.423920347458	633.404224231975	1026.581535586041	44.583448006635	630.568037240767	1067.543352591851	39.512056369596	422.340892947541	1144.709731902531	39.824693293353	345.371592983873	1220.698128797460	108.760246089581	371.165302724845	1352.750187347117	67.286302007531	350.042570738048	859.396806227300	1135.233106426767	239.113990627731	964.000129410936	896.657783833865	199.954016584730	1061.910904696616	1065.976209380926	812.252172620430	1272.933378291142	995.793574170637	689.557026673358	
73	46.670285714286	815.866125257964	1006.577970188718	521.125113789713	1010.298775219027	1440.777935935152	373.553945293579	1112.714061274919	1348.708098746704	522.595906753534	1038.888994197527	1413.572094494792	704.213403822811	1024.646241038609	1486.385120227262	527.981621377084	1036.897206564272	934.926877330156	641.742708677397	1029.451730498939	954.702496960345	367.178978819207	1036.750550186710	724.274325155458	618.146140324836	926.387364026461	632.120544850040	670.809668703133	993.970916956664	564.692527384123	598.881411377064	973.073955640023	479.167910454160	602.810223561147	1095.676554553277	764.767104465068	397.972561830239	1040.580116920876	635.951600678450	323.546742996727	1141.784540821798	576.835378004550	387.327882594434	1162.565029693129	508.668907654894	387.827115496265	1145.300828414853	435.360792775738	377.956281523923	1074.057195717033	307.775921994838	329.127402775008	1153.965236027548	206.269426786836	388.784238350335	932.191220854538	396.777837619758	606.118211598069	839.427870187813	305.043276369575	658.258843432322	876.175058989579	204.763834177680	599.187752235064	730.713153493950	44.700801619589	555.943580649137	900.973732434705	96.953243642582	598.530618448934	810.699271522357	36.661449303249	633.310688993309	1019.103309976608	43.871282320980	630.607278668743	1056.017667468602	38.282438444819	424.291481824480	1133.945209188824	37.766131974704	347.969333899123	1211.373503845855	104.398989280945	375.549860884232	1342.981234236454	59.813919593856	355.256110865645	861.361418429215	1133.543020803493	236.151719807557	963.918854454782	893.954148186236	197.320461812649	1057.839649111171	1065.935102090139	811.653894034848	1268.490189264651	993.012145724922	689.833171941432	
74	46.682928571429	816.659480736539	1005.996580324947	518.701891670904	1010.975036497672	1439.921446588231	370.759451852435	1113.086445899901	1348.375141990298	520.366269443280	1038.342796191389	1413.454518166972	701.516074427001	1024.700030352943	1485.946885893919	525.063947627028	1037.446219935007	934.238886676514	639.869267327629	1030.617230708944	953.825214716592	365.462580970050	1036.952178871317	723.363429805259	617.065891638544	925.799319875110	631.732976255333	669.374809547331	993.464583671602	563.658385879456	598.007834496926	971.820071454391	477.691998611455	601.789259801896	1096.360708846285	762.927301285053	397.494727888997	1040.224592104904	634.670697486916	323.874079863990	1140.670306653027	575.136143723244	388.609125323593	1159.970169121998	506.144591707600	389.834862333887	1142.301477884144	432.715655874494	379.528960200060	1069.797111031295	306.070236595446	330.131608755084	1147.177441746970	203.457030010208	391.015714052840	929.553467525685	395.956348227176	605.363636181033	835.379953126152	305.756800375865	657.624714892515	870.662085004735	204.757411269843	598.876838997297	723.349625216856	45.958695305985	556.069985531484	893.652369267971	96.755025321815	598.157476820131	803.282691327903	37.055490312401	633.207289095466	1011.670480449490	43.080575655671	630.651570889954	1045.617262128332	37.525230519389	425.549134291271	1124.159553207772	36.450682882417	349.743169603476	1202.738711771435	101.139454247348	378.933696392570	1333.971806462325	54.025160991173	359.260203585891	863.798729992620	1131.862509365452	233.083464785519	964.294726080794	891.256646392766	194.758887763434	1053.377113117571	1066.141699783864	810.937032945261	1263.639770323831	989.269532357500	690.748239749107	
